<svg xmlns="http://www.w3.org/2000/svg" width="65" height="65" viewBox="0 0 172 172"><g fill="none" stroke-miterlimit="10" font-family="none" font-weight="none" font-size="none" text-anchor="none" style="mix-blend-mode:normal"><path d="M0 172V0h172v172z"/><circle cx="67.5" cy="67.5" transform="scale(1.27407)" r="64" fill="#3498db"/><path d="M135.09 69.365v36.28c0 17.097-13.853 30.95-30.95 30.95H67.86c-17.097 0-30.95-13.853-30.95-30.95v-36.28c0-17.097 13.853-30.948 30.95-30.948h36.28c17.097 0 30.95 13.851 30.95 30.948z" fill="#fff"/><path d="M121.875 62.82c0 .84-.68 1.519-1.51 1.519H76.883a1.514 1.514 0 010-3.03h43.484c.83 0 1.51.68 1.51 1.51zM103.946 69.347c0 .84-.68 1.52-1.51 1.52H76.882a1.514 1.514 0 010-3.03h25.554c.83 0 1.51.68 1.51 1.51z" fill="#eff2f8"/><path d="M65.983 75.23h-9.877a4.203 4.203 0 01-4.203-4.203v-9.878a4.203 4.203 0 014.203-4.202h9.877a4.203 4.203 0 014.203 4.202v9.878a4.203 4.203 0 01-4.203 4.202z" fill="#20cafb"/><path d="M121.875 85.533c0 .84-.68 1.52-1.51 1.52H76.883a1.514 1.514 0 010-3.03h43.484c.83 0 1.51.68 1.51 1.51zM103.946 92.06c0 .84-.68 1.52-1.51 1.52H76.882a1.514 1.514 0 010-3.03h25.554c.83 0 1.51.68 1.51 1.51z" fill="#eff2f8"/><path d="M65.983 97.943h-9.877a4.203 4.203 0 01-4.203-4.203v-9.877a4.203 4.203 0 014.203-4.203h9.877a4.203 4.203 0 014.203 4.203v9.877a4.203 4.203 0 01-4.203 4.203z" fill="#fe4c40"/><g fill="#eff2f8"><path d="M121.875 108.246c0 .84-.68 1.52-1.51 1.52H76.883a1.514 1.514 0 010-3.03h43.484c.83 0 1.51.68 1.51 1.51zM103.946 114.773c0 .84-.68 1.52-1.51 1.52H76.882a1.514 1.514 0 010-3.03h25.554c.83 0 1.51.68 1.51 1.51z"/></g><path d="M65.983 120.656h-9.877a4.203 4.203 0 01-4.203-4.203v-9.877a4.203 4.203 0 014.203-4.203h9.877a4.203 4.203 0 014.203 4.203v9.877a4.203 4.203 0 01-4.203 4.203z" fill="#ffc536"/></g></svg>
